REM DIRINDEX 1\2,1\3
REM DIRNAME folder01,folder02,folder03
TITLE ""
FILE "Disc1Track09.mp3" MP3
  TRACK 01 AUDIO
    TITLE "0:"
    INDEX 01 00:00:00
  TRACK 02 AUDIO
    TITLE "3:cjc116_1081"
    INDEX 01 00:00:05
  TRACK 03 AUDIO
    TITLE "0:"
    INDEX 01 00:10:61
  TRACK 04 AUDIO
    TITLE "3:cjc116_1082"
    INDEX 01 00:11:44
  TRACK 05 AUDIO
    TITLE "0:"
    INDEX 01 00:12:73
  TRACK 06 AUDIO
    TITLE "2:cjc116_1083"
    INDEX 01 00:13:45
  TRACK 07 AUDIO
    TITLE "0:"
    INDEX 01 00:14:53
  TRACK 08 AUDIO
    TITLE "2:cjc116_1084"
    INDEX 01 00:14:64
  TRACK 09 AUDIO
    TITLE "0:"
    INDEX 01 00:19:16
  TRACK 10 AUDIO
    TITLE "2:cjc116_1085"
    INDEX 01 00:19:52
  TRACK 11 AUDIO
    TITLE "0:"
    INDEX 01 00:20:53
  TRACK 12 AUDIO
    TITLE "2:cjc116_1086"
    INDEX 01 00:20:71
  TRACK 13 AUDIO
    TITLE "0:"
    INDEX 01 00:25:70
  TRACK 14 AUDIO
    TITLE "2:cjc116_1087"
    INDEX 01 00:26:40
  TRACK 15 AUDIO
    TITLE "0:"
    INDEX 01 00:27:43
  TRACK 16 AUDIO
    TITLE "2:cjc116_1088"
    INDEX 01 00:27:67
  TRACK 17 AUDIO
    TITLE "0:"
    INDEX 01 00:32:56
  TRACK 18 AUDIO
    TITLE "2:cjc116_1089"
    INDEX 01 00:33:26
  TRACK 19 AUDIO
    TITLE "0:"
    INDEX 01 00:34:38
  TRACK 20 AUDIO
    TITLE "2:cjc116_1090"
    INDEX 01 00:34:59
  TRACK 21 AUDIO
    TITLE "0:"
    INDEX 01 00:38:47
  TRACK 22 AUDIO
    TITLE "2:cjc116_1091"
    INDEX 01 00:39:27
  TRACK 23 AUDIO
    TITLE "0:"
    INDEX 01 00:40:28
  TRACK 24 AUDIO
    TITLE "2:cjc116_1092"
    INDEX 01 00:40:52
  TRACK 25 AUDIO
    TITLE "0:"
    INDEX 01 00:45:22
  TRACK 26 AUDIO
    TITLE "2:cjc116_1093"
    INDEX 01 00:45:65
  TRACK 27 AUDIO
    TITLE "0:"
    INDEX 01 00:46:64
  TRACK 28 AUDIO
    TITLE "2:cjc116_1094"
    INDEX 01 00:47:05
  TRACK 29 AUDIO
    TITLE "0:"
    INDEX 01 00:51:28
  TRACK 30 AUDIO
    TITLE "2:cjc116_1095"
    INDEX 01 00:51:71
  TRACK 31 AUDIO
    TITLE "0:"
    INDEX 01 00:52:67
  TRACK 32 AUDIO
    TITLE "2:cjc116_1096"
    INDEX 01 00:53:17
  TRACK 33 AUDIO
    TITLE "0:"
    INDEX 01 00:57:37
  TRACK 34 AUDIO
    TITLE "2:cjc116_1097"
    INDEX 01 00:57:74
  TRACK 35 AUDIO
    TITLE "0:"
    INDEX 01 00:59:02
  TRACK 36 AUDIO
    TITLE "2:cjc116_1098"
    INDEX 01 00:59:22
  TRACK 37 AUDIO
    TITLE "0:"
    INDEX 01 01:03:43
  TRACK 38 AUDIO
    TITLE "2:cjc116_1099"
    INDEX 01 01:04:09
  TRACK 39 AUDIO
    TITLE "0:"
    INDEX 01 01:05:07
  TRACK 40 AUDIO
    TITLE "2:cjc116_1100"
    INDEX 01 01:05:21
  TRACK 41 AUDIO
    TITLE "0:"
    INDEX 01 01:09:40
  TRACK 42 AUDIO
    TITLE "2:cjc116_1101"
    INDEX 01 01:10:18
  TRACK 43 AUDIO
    TITLE "0:"
    INDEX 01 01:11:25
  TRACK 44 AUDIO
    TITLE "2:cjc116_1102"
    INDEX 01 01:11:45
  TRACK 45 AUDIO
    TITLE "0:"
    INDEX 01 01:16:56
  TRACK 46 AUDIO
    TITLE "2:cjc116_1103"
    INDEX 01 01:17:41
  TRACK 47 AUDIO
    TITLE "0:"
    INDEX 01 01:18:49
  TRACK 48 AUDIO
    TITLE "2:cjc116_1104"
    INDEX 01 01:18:64
  TRACK 49 AUDIO
    TITLE "0:"
    INDEX 01 01:23:01
  TRACK 50 AUDIO
    TITLE "2:cjc116_1105"
    INDEX 01 01:23:60
  TRACK 51 AUDIO
    TITLE "0:"
    INDEX 01 01:24:61
  TRACK 52 AUDIO
    TITLE "2:cjc116_1106"
    INDEX 01 01:25:08
  TRACK 53 AUDIO
    TITLE "0:"
    INDEX 01 01:29:50
  TRACK 54 AUDIO
    TITLE "2:cjc116_1107"
    INDEX 01 01:30:15
  TRACK 55 AUDIO
    TITLE "0:"
    INDEX 01 01:31:16
  TRACK 56 AUDIO
    TITLE "2:cjc116_1108"
    INDEX 01 01:31:39
  TRACK 57 AUDIO
    TITLE "0:"
    INDEX 01 01:36:07
  TRACK 58 AUDIO
    TITLE "2:cjc116_1109"
    INDEX 01 01:36:52
  TRACK 59 AUDIO
    TITLE "0:"
    INDEX 01 01:37:73
  TRACK 60 AUDIO
    TITLE "2:cjc116_1110"
    INDEX 01 01:38:14
  TRACK 61 AUDIO
    TITLE "0:"
    INDEX 01 01:42:53
  TRACK 62 AUDIO
    TITLE "2:cjc116_1111"
    INDEX 01 01:43:37
  TRACK 63 AUDIO
    TITLE "0:"
    INDEX 01 01:44:28
  TRACK 64 AUDIO
    TITLE "2:cjc116_1112"
    INDEX 01 01:44:52
  TRACK 65 AUDIO
    TITLE "0:"
    INDEX 01 01:49:14
  TRACK 66 AUDIO
    TITLE "2:cjc116_1113"
    INDEX 01 01:49:67
  TRACK 67 AUDIO
    TITLE "0:"
    INDEX 01 01:50:64
  TRACK 68 AUDIO
    TITLE "2:cjc116_1114"
    INDEX 01 01:51:13
  TRACK 69 AUDIO
    TITLE "0:"
    INDEX 01 01:55:22
  TRACK 70 AUDIO
    TITLE "2:cjc116_1115"
    INDEX 01 01:55:71
  TRACK 71 AUDIO
    TITLE "0:"
    INDEX 01 01:56:67
  TRACK 72 AUDIO
    TITLE "2:cjc116_1116"
    INDEX 01 01:57:11
  TRACK 73 AUDIO
    TITLE "0:"
    INDEX 01 02:00:67
  TRACK 74 AUDIO
    TITLE "2:cjc116_1117"
    INDEX 01 02:01:39
  TRACK 75 AUDIO
    TITLE "0:"
    INDEX 01 02:02:32
  TRACK 76 AUDIO
    TITLE "2:cjc116_1118"
    INDEX 01 02:02:50
  TRACK 77 AUDIO
    TITLE "0:"
    INDEX 01 02:06:05
  TRACK 78 AUDIO
    TITLE "2:cjc116_1119"
    INDEX 01 02:06:52
  TRACK 79 AUDIO
    TITLE "0:"
    INDEX 01 02:07:41
  TRACK 80 AUDIO
    TITLE "2:cjc116_1120"
    INDEX 01 02:07:63
  TRACK 81 AUDIO
    TITLE "0:"
    INDEX 01 02:11:63
  TRACK 82 AUDIO
    TITLE "2:cjc116_1121"
    INDEX 01 02:12:33
  TRACK 83 AUDIO
    TITLE "0:"
    INDEX 01 02:13:22
  TRACK 84 AUDIO
    TITLE "2:cjc116_1122"
    INDEX 01 02:13:40
  TRACK 85 AUDIO
    TITLE "0:"
    INDEX 01 02:17:44
  TRACK 86 AUDIO
    TITLE "2:cjc116_1123"
    INDEX 01 02:18:18
  TRACK 87 AUDIO
    TITLE "0:"
    INDEX 01 02:19:07
  TRACK 88 AUDIO
    TITLE "2:cjc116_1124"
    INDEX 01 02:19:31
  TRACK 89 AUDIO
    TITLE "0:"
    INDEX 01 02:23:25
  TRACK 90 AUDIO
    TITLE "2:cjc116_1125"
    INDEX 01 02:24:00
  TRACK 91 AUDIO
    TITLE "0:"
    INDEX 01 02:24:73
  TRACK 92 AUDIO
    TITLE "2:cjc116_1126"
    INDEX 01 02:25:14
  TRACK 93 AUDIO
    TITLE "0:"
    INDEX 01 02:29:31
  TRACK 94 AUDIO
    TITLE "2:cjc116_1127"
    INDEX 01 02:29:72
  TRACK 95 AUDIO
    TITLE "0:"
    INDEX 01 02:31:14
  TRACK 96 AUDIO
    TITLE "2:cjc116_1128"
    INDEX 01 02:31:34
  TRACK 97 AUDIO
    TITLE "0:"
    INDEX 01 02:36:13
  TRACK 98 AUDIO
    TITLE "2:cjc116_1129"
    INDEX 01 02:36:60
  TRACK 99 AUDIO
    TITLE "0:"
    INDEX 01 02:37:74
  TRACK 100 AUDIO
    TITLE "2:cjc116_1130"
    INDEX 01 02:38:18
  TRACK 101 AUDIO
    TITLE "0:"
    INDEX 01 02:42:10
  TRACK 102 AUDIO
    TITLE "2:cjc116_1131"
    INDEX 01 02:42:57
  TRACK 103 AUDIO
    TITLE "0:"
    INDEX 01 02:43:53
  TRACK 104 AUDIO
    TITLE "2:cjc116_1132"
    INDEX 01 02:43:63
  TRACK 105 AUDIO
    TITLE "0:"
    INDEX 01 02:47:07
  TRACK 106 AUDIO
    TITLE "2:cjc116_1133"
    INDEX 01 02:47:56
  TRACK 107 AUDIO
    TITLE "0:"
    INDEX 01 02:48:56
  TRACK 108 AUDIO
    TITLE "2:cjc116_1134"
    INDEX 01 02:48:72
  TRACK 109 AUDIO
    TITLE "0:"
    INDEX 01 02:53:37
  TRACK 110 AUDIO
    TITLE "2:cjc116_1135"
    INDEX 01 02:54:09
  TRACK 111 AUDIO
    TITLE "0:"
    INDEX 01 02:55:07
  TRACK 112 AUDIO
    TITLE "2:cjc116_1136"
    INDEX 01 02:55:27
  TRACK 113 AUDIO
    TITLE "0:"
    INDEX 01 02:58:74
  TRACK 114 AUDIO
    TITLE "2:cjc116_1137"
    INDEX 01 02:59:44
  TRACK 115 AUDIO
    TITLE "0:"
    INDEX 01 03:00:55
  TRACK 116 AUDIO
    TITLE "2:cjc116_1138"
    INDEX 01 03:00:69
  TRACK 117 AUDIO
    TITLE "0:"
    INDEX 01 03:04:71
  TRACK 118 AUDIO
    TITLE "2:cjc116_1139"
    INDEX 01 03:05:31
  TRACK 119 AUDIO
    TITLE "0:"
    INDEX 01 03:06:52
  TRACK 120 AUDIO
    TITLE "2:cjc116_1140"
    INDEX 01 03:06:73
  TRACK 121 AUDIO
    TITLE "0:"
    INDEX 01 03:11:31
  TRACK 122 AUDIO
    TITLE "2:cjc116_1141"
    INDEX 01 03:12:07
  TRACK 123 AUDIO
    TITLE "0:"
    INDEX 01 03:13:17
  TRACK 124 AUDIO
    TITLE "2:cjc116_1142"
    INDEX 01 03:13:34
  TRACK 125 AUDIO
    TITLE "0:"
    INDEX 01 03:17:14
  TRACK 126 AUDIO
    TITLE "2:cjc116_1143"
    INDEX 01 03:17:59
  TRACK 127 AUDIO
    TITLE "0:"
    INDEX 01 03:19:02
  TRACK 128 AUDIO
    TITLE "2:cjc116_1144"
    INDEX 01 03:19:21
  TRACK 129 AUDIO
    TITLE "0:"
    INDEX 01 03:23:40
  TRACK 130 AUDIO
    TITLE "2:cjc116_1145"
    INDEX 01 03:24:12
  TRACK 131 AUDIO
    TITLE "0:"
    INDEX 01 03:25:14
  TRACK 132 AUDIO
    TITLE "2:cjc116_1146"
    INDEX 01 03:25:35
  TRACK 133 AUDIO
    TITLE "0:"
    INDEX 01 03:29:37
  TRACK 134 AUDIO
    TITLE "2:cjc116_1147"
    INDEX 01 03:30:01
  TRACK 135 AUDIO
    TITLE "0:"
    INDEX 01 03:30:74
  TRACK 136 AUDIO
    TITLE "2:cjc116_1148"
    INDEX 01 03:31:15
  TRACK 137 AUDIO
    TITLE "0:"
    INDEX 01 03:35:61
  TRACK 138 AUDIO
    TITLE "2:cjc116_1149"
    INDEX 01 03:36:37
  TRACK 139 AUDIO
    TITLE "0:"
    INDEX 01 03:37:31
  TRACK 140 AUDIO
    TITLE "2:cjc116_1150"
    INDEX 01 03:37:54
  TRACK 141 AUDIO
    TITLE "0:"
    INDEX 01 03:41:25
  TRACK 142 AUDIO
    TITLE "2:cjc116_1151"
    INDEX 01 03:41:70
  TRACK 143 AUDIO
    TITLE "0:"
    INDEX 01 03:42:59
  TRACK 144 AUDIO
    TITLE "2:cjc116_1152"
    INDEX 01 03:43:02
  TRACK 145 AUDIO
    TITLE "0:"
    INDEX 01 03:46:73
  TRACK 146 AUDIO
    TITLE "2:cjc116_1153"
    INDEX 01 03:47:45
  TRACK 147 AUDIO
    TITLE "0:"
    INDEX 01 03:48:46
  TRACK 148 AUDIO
    TITLE "2:cjc116_1154"
    INDEX 01 03:48:68
  TRACK 149 AUDIO
    TITLE "0:"
    INDEX 01 03:53:22
  TRACK 150 AUDIO
    TITLE "2:cjc116_1155"
    INDEX 01 03:53:59
  TRACK 151 AUDIO
    TITLE "0:"
    INDEX 01 03:54:47
  TRACK 152 AUDIO
    TITLE "2:cjc116_1156"
    INDEX 01 03:55:01
  TRACK 153 AUDIO
    TITLE "0:"
    INDEX 01 03:59:34
